<?xml version="1.0" standalone="no"?>
<!DOCTYPE svg PUBLIC "-//W3C//DTD SVG 20010904//EN"
 "http://www.w3.org/TR/2001/REC-SVG-20010904/DTD/svg10.dtd">
<svg version="1.0" xmlns="http://www.w3.org/2000/svg"
 width="512.000000pt" height="512.000000pt" viewBox="0 0 512.000000 512.000000"
 preserveAspectRatio="xMidYMid meet">

<g transform="translate(0.000000,512.000000) scale(0.100000,-0.100000)"
fill="#000000" stroke="none">
<path d="M2354 4627 l-60 -172 -168 -12 c-92 -6 -175 -13 -184 -15 -11 -2 35
-43 126 -112 82 -63 142 -115 142 -125 -1 -9 -18 -88 -40 -176 -21 -88 -37
-162 -35 -163 2 -2 69 41 149 97 79 56 147 101 150 101 4 0 74 -43 157 -95 82
-52 151 -95 154 -95 2 0 -8 37 -22 83 -14 45 -38 124 -53 175 l-28 93 139 117
c113 95 135 118 116 120 -12 1 -93 6 -181 10 l-158 7 -67 162 c-37 89 -69 165
-72 167 -3 3 -32 -72 -65 -167z"/>
<path d="M1395 4675 c-169 -31 -366 -116 -495 -214 -84 -63 -214 -199 -269
-280 -64 -93 -136 -252 -167 -366 -26 -93 -28 -113 -28 -295 0 -182 2 -202 28
-295 31 -114 103 -273 166 -366 106 -155 281 -305 454 -389 152 -74 364 -127
469 -118 l38 3 -87 65 c-473 355 -662 997 -463 1567 85 244 263 486 471 644
l79 59 -63 -1 c-35 0 -94 -7 -133 -14z"/>
<path d="M2405 2710 l-1660 -1660 153 -152 152 -153 1662 1662 1663 1663 -150
150 c-82 82 -152 150 -155 150 -3 0 -752 -747 -1665 -1660z"/>
<path d="M1739 3695 c-24 -69 -46 -130 -49 -135 -3 -5 -61 -12 -130 -16 -69
-3 -131 -9 -137 -13 -8 -4 29 -38 97 -90 61 -46 110 -87 110 -90 0 -3 -15 -64
-34 -136 -19 -71 -33 -131 -32 -132 1 -2 55 33 119 77 l116 80 118 -74 c65
-41 119 -72 120 -68 2 4 -15 66 -37 137 -39 127 -39 130 -21 145 11 8 60 49
110 90 l90 75 -127 6 c-70 4 -134 7 -143 8 -12 1 -33 41 -69 131 -29 72 -53
130 -55 130 -1 0 -22 -56 -46 -125z"/>
<path d="M4106 2903 c36 -87 91 -220 121 -295 l56 -138 32 38 c18 20 123 141
233 267 110 127 198 232 196 234 -4 5 -602 50 -666 51 l-37 0 65 -157z"/>
<path d="M3000 2114 l-815 -815 30 -25 c45 -37 210 -118 300 -148 226 -75 505
-75 730 0 96 32 219 92 300 147 78 53 214 185 276 267 61 81 138 230 173 335
75 226 75 505 0 730 -41 123 -148 325 -172 325 -4 0 -374 -367 -822 -816z"/>
<path d="M4161 1709 c-66 -161 -120 -293 -119 -295 3 -2 676 44 696 48 9 2
-363 445 -442 526 -11 11 -35 -40 -135 -279z"/>
<path d="M2079 730 c19 -268 28 -350 37 -346 7 3 128 105 269 227 208 180 253
224 240 231 -14 8 -564 238 -568 238 -1 0 9 -158 22 -350z"/>
<path d="M3412 960 c-156 -65 -285 -120 -288 -123 -6 -5 511 -457 523 -457 9
0 59 668 52 687 -2 6 -129 -41 -287 -107z"/>
</g>
</svg>
