<?xml version="1.0" standalone="no"?>
<!DOCTYPE svg PUBLIC "-//W3C//DTD SVG 20010904//EN"
 "http://www.w3.org/TR/2001/REC-SVG-20010904/DTD/svg10.dtd">
<svg version="1.0" xmlns="http://www.w3.org/2000/svg"
 width="512.000000pt" height="512.000000pt" viewBox="0 0 512.000000 512.000000"
 preserveAspectRatio="xMidYMid meet">

<g transform="translate(0.000000,512.000000) scale(0.100000,-0.100000)"
fill="#000000" stroke="none">
<path d="M1441 4402 c-13 -187 -22 -344 -20 -349 3 -9 559 214 575 230 6 5
-511 457 -523 457 -5 0 -19 -152 -32 -338z"/>
<path d="M2740 4513 c-212 -183 -259 -228 -245 -235 14 -8 564 -238 568 -238
1 0 -9 158 -22 350 -14 193 -28 350 -32 350 -4 0 -125 -102 -269 -227z"/>
<path d="M2405 2710 l-1660 -1660 153 -152 152 -153 1662 1662 1663 1663 -150
150 c-82 82 -152 150 -155 150 -3 0 -752 -747 -1665 -1660z"/>
<path d="M2032 4035 c-150 -27 -327 -100 -457 -188 -78 -53 -214 -185 -276
-267 -61 -81 -138 -230 -173 -335 -75 -226 -75 -504 0 -730 30 -90 111 -255
148 -300 l25 -30 818 818 818 818 -30 25 c-45 37 -210 118 -300 148 -43 15
-117 33 -163 41 -103 18 -310 18 -410 0z"/>
<path d="M735 3685 c-170 -13 -322 -24 -338 -26 -26 -4 -16 -17 194 -259 121
-140 226 -261 233 -268 11 -11 34 38 131 270 64 156 120 289 122 296 3 7 -2
11 -13 11 -11 -1 -158 -12 -329 -24z"/>
<path d="M3536 2762 c5 -5 48 -38 95 -75 462 -355 645 -990 448 -1554 -85
-245 -262 -486 -473 -645 l-81 -61 95 6 c52 3 140 18 195 32 120 31 312 122
405 194 84 64 214 199 269 280 64 93 136 252 167 366 26 93 28 113 28 295 0
182 -2 202 -28 295 -31 114 -103 273 -166 366 -59 86 -180 211 -270 278 -144
107 -323 184 -504 216 -95 16 -196 20 -180 7z"/>
<path d="M604 2382 c-223 -257 -230 -267 -205 -274 31 -8 656 -52 669 -47 7 3
-173 459 -225 571 -6 13 -58 -41 -239 -250z"/>
<path d="M3437 1960 l-116 -80 -118 74 c-65 41 -119 72 -120 68 -2 -4 15 -65
37 -137 39 -127 39 -130 21 -145 -11 -8 -60 -49 -110 -90 l-90 -75 127 -6 c70
-4 134 -7 143 -8 12 -1 33 -42 70 -133 41 -102 54 -127 61 -112 4 10 26 71 48
135 l41 116 82 6 c45 4 102 7 127 7 80 0 76 11 -40 99 -61 46 -110 87 -110 90
0 3 15 64 34 136 19 71 33 131 32 132 -1 2 -55 -33 -119 -77z"/>
<path d="M2840 1174 c-74 -53 -140 -98 -147 -101 -6 -2 -79 39 -162 91 -84 53
-153 96 -156 96 -2 0 8 -37 22 -82 14 -46 38 -125 53 -176 l28 -93 -139 -117
c-113 -95 -135 -118 -116 -120 12 -1 93 -6 181 -10 l158 -7 67 -162 c37 -89
69 -165 72 -167 3 -3 32 72 65 167 l60 172 168 12 c92 6 175 13 184 15 11 2
-35 43 -126 112 -78 60 -142 114 -142 121 0 12 64 290 76 328 3 9 2 17 -3 17
-4 -1 -69 -44 -143 -96z"/>
</g>
</svg>
